<?xml version="1.0" encoding="UTF-8"?>
<svg width="250px" height="166px" viewBox="0 0 250 166" version="1.1" xmlns="http://www.w3.org/2000/svg" xmlns:xlink="http://www.w3.org/1999/xlink">
    <title>Slack elasticsearch</title>
    <g id="Slack-elasticsearch" stroke="none" stroke-width="1" fill="none" fill-rule="evenodd">
        <g id="undraw_programmer_imem" transform="translate(0.000000, 33.000000)" fill-rule="nonzero">
            <path d="M230.681382,105.136756 C230.403071,105.736564 230.12556,106.328375 229.848848,106.912188 C229.416987,107.819098 228.990723,108.708413 228.570058,109.580134 C228.382917,109.966411 228.195777,110.345489 228.013436,110.724568 C225.950096,114.940019 224.023512,118.668426 222.387236,121.734645 C219.363014,127.393596 213.493749,130.953235 207.077735,131.019674 L170.693378,131.415547 L170.309501,131.415547 L167.190499,131.449136 L164.522553,131.477927 L156.341171,131.566699 L156.010077,131.566699 L151.84501,131.612284 L151.71785,131.612284 L126.046065,131.890595 L103.130998,132.130518 L100.465451,132.159309 L83.9107486,132.339251 L83.8915547,132.339251 L73.1549904,132.454415 L73.0398273,132.454415 L39.090691,132.821497 L28.9347409,132.931862 C28.069978,132.941736 27.2054253,132.898468 26.3459693,132.802303 L26.3459693,132.802303 C26.053263,132.768714 25.7605566,132.730326 25.4702495,132.684741 C20.7336821,131.953585 16.3906253,129.621594 13.1645873,126.077255 C8.79558541,121.271593 5.61660269,115.664587 3.48128599,109.580134 C3.17258477,108.702015 2.8846769,107.8127 2.61756238,106.912188 C-4.77447217,81.9241843 4.23704415,49.6857006 20.4558541,28.1118042 C21.1356366,27.2096929 21.8266155,26.3299744 22.5287908,25.4726488 L22.5455854,25.4534549 C27.5335893,19.3306142 33.1261996,14.2154511 39.0834933,10.578215 C49.6401152,4.121881 61.3363724,2.30326296 72.840691,7.7231286 C82.5743762,12.3104607 91.6626679,14.4673704 100.472649,15.0527831 C101.362764,15.1103647 102.252879,15.1535509 103.138196,15.1799424 C123.346929,15.815739 142.286468,8.5340691 164.527351,3.83397313 C165.412668,3.64683301 166.300384,3.46209213 167.195298,3.28694818 C183.06142,0.129558541 200.662188,-1.53550864 221.59309,1.96497121 C223.767654,2.32021652 225.913448,2.83341099 228.013436,3.50047985 C228.93634,3.79798464 229.825656,4.11788228 230.681382,4.46017274 C240.671785,8.52447217 246.120441,16.0340691 248.435701,25.443858 C248.65483,26.3171785 248.84437,27.2056942 249.004319,28.109405 C253.109405,50.743762 241.086852,82.8502879 230.681382,105.136756 Z" id="Path" fill="#F2F2F2"></path>
            <path d="M119.246641,106.912188 C119.149924,107.809586 119.000109,108.700463 118.797985,109.580134 L141.278791,109.580134 L141.278791,106.912188 L119.246641,106.912188 Z M100.472649,121.981766 L103.138196,121.960173 L103.138196,115.369482 C102.224088,115.328695 101.333973,115.287908 100.472649,115.244722 L100.472649,121.981766 Z M44.5897313,106.912188 L44.5897313,109.580134 L92.2144914,109.580134 L92.2144914,106.912188 L44.5897313,106.912188 Z M248.447697,25.4534549 L230.693378,25.4534549 L230.693378,4.46257198 C229.837652,4.11548305 228.948337,3.79558541 228.025432,3.50287908 L228.025432,25.4534549 L167.195298,25.4534549 L167.195298,3.27975048 C166.300384,3.45489443 165.412668,3.63963532 164.527351,3.82677543 L164.527351,25.4534549 L103.138196,25.4534549 L103.138196,15.1727447 C102.252879,15.1463532 101.362764,15.103167 100.472649,15.0455854 L100.472649,25.4534549 L39.0834933,25.4534549 L39.0834933,10.578215 C33.1261996,14.2154511 27.5335893,19.3306142 22.5455854,25.4534549 L22.5287908,25.4534549 L22.5287908,25.4726488 C21.825016,26.3363724 21.1340371,27.2160909 20.4558541,28.1118042 L22.5287908,28.1118042 L22.5287908,106.912188 L2.61516315,106.912188 C2.88067818,107.8127 3.16858605,108.702015 3.47888676,109.580134 L22.5263916,109.580134 L22.5263916,132.041747 C23.4847449,132.334853 24.4629629,132.558561 25.4534549,132.711132 C25.743762,132.756718 26.0364683,132.795106 26.3291747,132.828695 L26.3291747,132.828695 C27.1886307,132.92486 28.0531834,132.968127 28.9179463,132.958253 L39.0738964,132.847889 L39.0738964,109.575336 L100.472649,109.575336 L100.472649,132.178503 L103.138196,132.149712 L103.138196,109.580134 L164.527351,109.580134 L164.527351,131.49952 L167.195298,131.470729 L167.195298,109.580134 L228.013436,109.580134 L228.013436,110.724568 C228.195777,110.345489 228.382917,109.966411 228.570058,109.580134 C228.990723,108.708413 229.416987,107.819098 229.848848,106.912188 C230.12556,106.329974 230.403071,105.738164 230.681382,105.136756 L230.681382,28.1214012 L249.016315,28.1214012 C248.854766,27.2112924 248.665227,26.321977 248.447697,25.4534549 Z M39.0834933,106.912188 L39.0834933,28.1118042 L100.472649,28.1118042 L100.472649,106.912188 L39.0834933,106.912188 Z M103.142994,106.912188 L103.142994,28.1118042 L164.527351,28.1118042 L164.527351,106.912188 L103.142994,106.912188 Z M228.018234,106.912188 L167.195298,106.912188 L167.195298,28.1118042 L228.013436,28.1118042 L228.018234,106.912188 Z" id="Shape" fill="#000000" opacity="0.1"></path>
            <polygon id="Path" fill="#65617D" points="207.075336 128.035029 207.075336 131.154031 170.6262 131.489923 170.237524 131.497121 156.384357 131.62428 156.053263 131.629079 151.84261 131.665067 151.71785 131.665067 126.050864 131.902591 83.9179463 132.293666 83.8819578 132.293666 73.1693858 132.394434 73.0542226 132.396833 25.4534549 132.833493 25.4534549 129.234645 36.6458733 122.516795 59.1026871 122.329655 59.5825336 122.327255 59.7408829 122.324856 60.2207294 122.317658 71.0028791 122.228887 71.4851248 122.226488 71.6386756 122.224088 72.1185221 122.221689 75.5758157 122.192898 75.6669866 122.190499 84.1962572 122.118522 84.2658349 122.118522 150.820537 121.557102 152.449616 121.545106 152.612764 121.545106 153.855566 121.533109 162.888676 121.458733 163.368522 121.451536 163.81238 121.446737 164.042706 121.446737 166.852207 121.425144 167.408829 121.417946 168.15499 121.413148 170.494242 121.391555 174.205854 121.360365 174.685701 121.355566 175.520633 121.350768 175.676583 121.350768 193.601248 121.197217"></polygon>
            <polygon id="Path" fill="#000000" opacity="0.2" points="207.075336 128.035029 207.075336 131.154031 170.6262 131.489923 170.237524 131.497121 156.384357 131.62428 156.053263 131.629079 151.84261 131.665067 151.71785 131.665067 126.050864 131.902591 83.9179463 132.293666 83.8819578 132.293666 73.1693858 132.394434 73.0542226 132.396833 25.4534549 132.833493 25.4534549 129.234645 36.6458733 122.516795 59.1026871 122.329655 59.5825336 122.327255 59.7408829 122.324856 60.2207294 122.317658 71.0028791 122.228887 71.4851248 122.226488 71.6386756 122.224088 72.1185221 122.221689 75.5758157 122.192898 75.6669866 122.190499 84.1962572 122.118522 84.2658349 122.118522 150.820537 121.557102 152.449616 121.545106 152.612764 121.545106 153.855566 121.533109 162.888676 121.458733 163.368522 121.451536 163.81238 121.446737 164.042706 121.446737 166.852207 121.425144 167.408829 121.417946 168.15499 121.413148 170.494242 121.391555 174.205854 121.360365 174.685701 121.355566 175.520633 121.350768 175.676583 121.350768 193.601248 121.197217"></polygon>
            <path d="M71.041267,116.041267 L71.041267,121.916987 C71.0415311,122.485034 70.7146448,123.002448 70.2015355,123.246161 C70.0143496,123.336922 69.8097163,123.386034 69.6017274,123.390115 L61.2284069,123.567658 C61.0047836,123.573022 60.7829872,123.526198 60.5806142,123.430902 C60.0581847,123.191447 59.7234727,122.669222 59.7240874,122.09453 L59.7240874,116.041267 L71.041267,116.041267 Z" id="Path" fill="#3F3D56"></path>
            <path d="M71.041267,116.041267 L71.041267,121.916987 C71.0415311,122.485034 70.7146448,123.002448 70.2015355,123.246161 C70.0143496,123.336922 69.8097163,123.386034 69.6017274,123.390115 L61.2284069,123.567658 C61.0047836,123.573022 60.7829872,123.526198 60.5806142,123.430902 C60.0581847,123.191447 59.7234727,122.669222 59.7240874,122.09453 L59.7240874,116.041267 L71.041267,116.041267 Z" id="Path" fill="#000000" opacity="0.1"></path>
            <path d="M71.5211134,116.041267 L71.5211134,121.916987 C71.5213776,122.485034 71.1944913,123.002448 70.681382,123.246161 C70.494196,123.336922 70.2895627,123.386034 70.0815739,123.390115 L61.7082534,123.567658 C61.48463,123.573022 61.2628336,123.526198 61.0604607,123.430902 C60.5380312,123.191447 60.2033192,122.669222 60.2039339,122.09453 L60.2039339,116.041267 L71.5211134,116.041267 Z" id="Path" fill="#3F3D56"></path>
            <rect id="Rectangle" fill="#3F3D56" x="163.368522" y="116.038868" width="11.3171785" height="7.55758157"></rect>
            <rect id="Rectangle" fill="#000000" opacity="0.1" x="163.368522" y="116.038868" width="11.3171785" height="7.55758157"></rect>
            <rect id="Rectangle" fill="#3F3D56" x="162.888676" y="116.038868" width="11.3171785" height="7.55758157"></rect>
            <polygon id="Path" fill="#000000" opacity="0.1" points="71.518714 116.038868 71.518714 117.231286 60.2015355 117.533589 60.2015355 116.038868"></polygon>
            <path d="M91.4947217,74.9424184 L91.4947217,115.297505 C91.4886845,115.809132 91.0823213,116.22605 90.5710173,116.245202 L44.5897313,117.46881 L44.5777351,117.46881 C44.0570398,117.462341 43.6365074,117.041809 43.6300384,116.521113 L43.6300384,74.9424184 C43.6365074,74.4217231 44.0570398,74.0011907 44.5777351,73.9947217 L90.547025,73.9947217 C91.0677203,74.0011907 91.4882527,74.4217231 91.4947217,74.9424184 Z" id="Path" fill="#65617D"></path>
            <path d="M44.5897313,73.9947217 L44.5897313,117.46881 L44.5777351,117.46881 C44.0570398,117.462341 43.6365074,117.041809 43.6300384,116.521113 L43.6300384,74.9424184 C43.6365074,74.4217231 44.0570398,74.0011907 44.5777351,73.9947217 L44.5897313,73.9947217 Z" id="Path" fill="#000000" opacity="0.1"></path>
            <polygon id="Path" fill="#387ED1" points="46.6866603 76.5714971 89.2730326 76.5714971 89.2730326 112.140115 46.6866603 113.099808"></polygon>
            <polygon id="Path" fill="#000000" opacity="0.1" points="174.205854 116.038868 174.205854 117.576775 162.888676 117.274472 162.888676 116.038868"></polygon>
            <path d="M189.143474,74.9424184 L189.143474,116.521113 C189.136907,117.046446 188.709155,117.46881 188.183781,117.46881 L188.183781,117.46881 L142.192898,116.245202 C141.681594,116.22605 141.275231,115.809132 141.269194,115.297505 L141.269194,74.9424184 C141.275663,74.4217231 141.696195,74.0011907 142.216891,73.9947217 L188.18618,73.9947217 C188.71062,73.9959918 189.13692,74.4180185 189.143474,74.9424184 Z" id="Path" fill="#65617D"></path>
            <path d="M189.143474,74.9424184 L189.143474,116.521113 C189.136907,117.046446 188.709155,117.46881 188.183781,117.46881 L188.183781,117.46881 L188.183781,73.9947217 L188.183781,73.9947217 C188.709155,73.9947217 189.136907,74.4170854 189.143474,74.9424184 Z" id="Path" fill="#000000" opacity="0.1"></path>
            <polygon id="Path" fill="#387ED1" points="186.082054 76.5714971 143.495681 76.5714971 143.495681 112.140115 186.082054 113.099808"></polygon>
            <path d="M140.079175,74.9424184 L140.079175,115.297505 C140.073137,115.809132 139.666774,116.22605 139.15547,116.245202 L93.1741843,117.46881 L93.1741843,117.46881 C92.6488102,117.46881 92.2210585,117.046446 92.2144914,116.521113 L92.2144914,74.9424184 C92.2209604,74.4217231 92.6414927,74.0011907 93.1621881,73.9947217 L139.131478,73.9947217 C139.652173,74.0011907 140.072706,74.4217231 140.079175,74.9424184 Z" id="Path" fill="#65617D"></path>
            <polygon id="Path" fill="#387ED1" points="95.2711132 76.5714971 137.857486 76.5714971 137.857486 112.140115 95.2711132 113.099808"></polygon>
            <polygon id="Path" fill="#000000" opacity="0.1" points="207.075336 128.035029 207.075336 131.154031 170.6262 131.489923 170.237524 131.497121 156.384357 131.62428 156.053263 131.629079 151.84261 131.665067 151.71785 131.665067 126.050864 131.902591 83.9179463 132.293666 83.8819578 132.293666 73.1693858 132.394434 73.0542226 132.396833 25.4534549 132.833493 25.4534549 129.234645 74.0403071 128.915547 74.1554702 128.915547 83.9899232 128.848369 84.0355086 128.848369 151.952975 128.399712 152.022553 128.399712 152.06334 128.397313 152.176104 128.397313 153.325336 128.390115 153.675624 128.390115 171.547505 128.270154 172.603167 128.265355 172.838292 128.262956"></polygon>
            <circle id="Oval" fill="#FBBEBE" cx="116.90499" cy="71.5331094" r="12.3152591"></circle>
            <path d="M129.222649,90.4894434 C129.222649,90.4894434 105.350288,93.3685221 107.629559,90.4894434 C108.454894,89.4481766 108.682821,86.3627639 108.637236,82.8478887 C108.622841,81.7802303 108.584453,80.6741843 108.529271,79.5729367 C108.265355,74.2946257 107.629559,69.1362764 107.629559,69.1362764 C107.629559,69.1362764 128.502879,59.2994242 126.103647,67.096929 C125.143954,70.2471209 125.458253,74.6713052 126.18762,78.8243762 C126.401152,80.0359885 126.648273,81.2236084 126.90739,82.3512476 C127.539765,85.1017102 128.31253,87.8179968 129.222649,90.4894434 L129.222649,90.4894434 Z" id="Path" fill="#FBBEBE"></path>
            <path d="M121.432342,89.5129559 C124.193858,89.0019194 127.118522,88.0734165 129.716891,89.1434741 C130.400672,89.4241843 131.029271,89.834453 131.729846,90.0695777 C132.430422,90.3047025 133.198177,90.3622841 133.927543,90.5278311 C136.489923,91.1084453 138.567658,93.0590211 139.901631,95.3262956 C141.235605,97.5935701 141.926583,100.158349 142.603167,102.696737 L144.258637,108.893954 C145.698177,114.28023 147.137716,119.712092 147.471209,125.28071 C127.429612,126.427862 107.342242,126.542377 87.2888676,125.6238 C88.5940499,123.142994 89.928023,120.511036 89.8176583,117.706334 C89.7072937,114.901631 88.0926104,112.135317 88.6756238,109.371401 C89.0475048,107.610365 90.2519194,106.158829 90.9884837,104.520154 C93.0878119,99.8368522 91.4539347,93.5340691 95.1439539,89.96881 C96.8042226,88.3661228 99.2226488,87.7591171 101.533109,87.8358925 C104.479367,87.934261 107.495202,88.853167 110.410269,89.3018234 C114.143474,89.8680422 117.670345,90.2039347 121.432342,89.5129559 Z" id="Path" fill="#FF6584"></path>
            <path d="M152.838292,116.185221 L152.814299,116.528311 L152.814299,116.552303 L152.773512,117.104127 L152.454415,121.545106 L152.068138,126.895393 L151.957774,128.402111 L151.71785,131.626679 L151.71785,131.667466 L126.046065,131.90739 L83.9179463,132.363244 L83.9179463,132.564779 L83.884357,132.564779 L83.884357,132.363244 L83.884357,132.296065 L83.9923225,128.850768 L84.1986564,122.118522 L84.3761996,116.410749 L84.3929942,115.842131 C84.4142079,115.148519 84.7197907,114.494169 85.2380193,114.032664 C85.7562479,113.571159 86.4414918,113.343135 87.1329175,113.402111 C88.2653551,113.498081 89.7360845,113.615643 91.4947217,113.740403 L92.2144914,113.793186 C102.370441,114.49856 121.139635,115.410269 140.079175,114.273033 C140.477447,114.25144 140.878119,114.227447 141.278791,114.198656 C144.215451,114.013916 147.149712,113.776392 150.055182,113.478887 C150.79871,113.400984 151.53856,113.656386 152.075688,114.176382 C152.612817,114.696378 152.89206,115.427563 152.838292,116.173225 L152.838292,116.185221 Z" id="Path" fill="#000000" opacity="0.1"></path>
            <path d="M83.9107486,132.564779 L83.9107486,132.363244 L126.046065,131.90499 L151.71785,131.665067 L151.789827,131.665067 L151.789827,131.62428 L152.02975,128.399712 L152.132917,126.960173 L152.526392,121.535509 L152.835893,117.240883 L152.835893,117.135317 C152.850198,116.937426 152.841341,116.738542 152.809501,116.542706 C152.810843,116.534765 152.810843,116.526655 152.809501,116.518714 C152.743592,116.113802 152.57877,115.731414 152.329655,115.40547 C151.792571,114.71675 150.938115,114.353924 150.069578,114.445777 C147.164107,114.743282 144.229846,114.980806 141.293186,115.165547 C140.892514,115.194338 140.491843,115.21833 140.09357,115.239923 C121.154031,116.365163 102.384837,115.453455 92.2288868,114.760077 L91.5091171,114.707294 C89.7504798,114.582534 88.2797505,114.46737 87.1473129,114.369002 C85.8570043,114.260122 84.6929292,115.143534 84.4505758,116.415547 C84.4263509,116.545439 84.4119149,116.676967 84.4073896,116.809021 L84.2442418,122.12572 L84.0211132,128.860365 L83.915547,132.305662 L83.915547,132.372841 L83.915547,132.574376 L83.9107486,132.564779 Z" id="Path" fill="#3F3D56"></path>
            <path d="M152.910269,117.867083 L152.615163,121.545106 L152.176104,127.027351 L152.065739,128.399712 L151.825816,131.473129 L151.81142,131.626679 L151.81142,131.667466 L151.81142,131.667466 L151.775432,132.022553 L151.801823,131.667466 L151.732246,131.667466 L126.060461,131.90739 L83.9179463,132.363244 L83.9179463,132.296065 L84.0355086,128.850768 L84.2754319,122.118522 L84.4289827,117.643954 C84.4443236,117.126772 84.7206998,116.652597 85.1631478,116.384357 C85.4348299,116.217849 85.7524903,116.142216 86.0700576,116.168426 C86.5738964,116.209213 87.1928983,116.257198 87.9150672,116.309981 C89.0882917,116.396353 90.5350288,116.497121 92.2192898,116.602687 C95.3382917,116.799424 99.2514395,117.010557 103.735605,117.183301 C116.211612,117.663148 133.054223,117.823896 149.052303,116.422745 C149.772073,116.360365 150.515835,116.290787 151.242802,116.221209 C151.530554,116.192513 151.820472,116.247497 152.077735,116.379559 C152.150606,116.415856 152.219718,116.459252 152.284069,116.509117 C152.492929,116.660454 152.658394,116.863976 152.763916,117.099328 C152.788393,117.146152 152.808472,117.195147 152.823896,117.245681 C152.89597,117.44446 152.925398,117.656183 152.910269,117.867083 Z" id="Path" fill="#000000" opacity="0.1"></path>
            <path d="M71.5211134,121.151631 L71.5211134,121.916987 C71.5213776,122.485034 71.1944913,123.002448 70.681382,123.246161 L61.0604607,123.430902 C60.5380312,123.191447 60.2033192,122.669222 60.2039339,122.09453 L60.2039339,121.37476 L71.5211134,121.151631 Z" id="Path" fill="#000000" opacity="0.1"></path>
            <polygon id="Path" fill="#3F3D56" points="71.6386756 123.697217 59.1026871 123.93714 59.1026871 121.857006 71.6386756 121.617083"></polygon>
            <polygon id="Path" fill="#000000" opacity="0.1" points="71.6386756 123.697217 59.1026871 123.93714 59.1026871 121.857006 71.6386756 121.617083"></polygon>
            <polygon id="Path" fill="#3F3D56" points="72.1185221 123.697217 59.5825336 123.93714 59.5825336 121.857006 72.1185221 121.617083"></polygon>
            <path d="M162.960652,121.631478 L162.960652,122.396833 C162.960388,122.96488 163.287275,123.482294 163.800384,123.726008 L173.421305,123.910749 C173.943735,123.671294 174.278447,123.149068 174.277832,122.574376 L174.277832,121.854607 L162.960652,121.631478 Z" id="Path" fill="#000000" opacity="0.1"></path>
            <polygon id="Path" fill="#000000" opacity="0.1" points="162.840691 124.177063 175.376679 124.416987 175.376679 122.336852 162.840691 122.096929"></polygon>
            <polygon id="Path" fill="#3F3D56" points="162.360845 124.177063 174.896833 124.416987 174.896833 122.336852 162.360845 122.096929"></polygon>
            <path d="M109.114683,75.3071017 C109.133877,76.9865643 108.356526,78.5700576 107.696737,80.1223608 C105.294492,85.776929 104.254073,91.9167145 104.659309,98.047025 C104.834453,100.68618 105.278311,103.325336 104.834453,105.940499 C104.390595,108.555662 102.8119,111.163628 100.275912,111.914587 C104.481766,114.421785 110.175144,114.157869 114.133877,111.276392 C116.242802,109.740883 117.814299,107.598369 119.352207,105.491843 C119.169548,109.275921 118.073909,112.959603 116.158829,116.228407 C123.159337,115.608577 129.568728,112.049451 133.795585,106.434741 C134.829655,105.040787 135.729367,103.510077 136.127639,101.821017 C136.869002,98.7020154 135.834933,95.4606526 135.045585,92.3440499 C134.385963,89.7386886 133.891537,87.0942701 133.565259,84.4265835 C133.462092,83.5724568 133.378119,82.6943378 133.589251,81.859405 C133.829175,80.8829175 134.46977,80.0575816 134.942418,79.1674664 C136.285988,76.6386756 136.317179,73.5772553 135.628599,70.7989443 C134.940019,68.0206334 133.591651,65.4582534 132.255278,62.9270633 C131.185221,60.8973129 130.023992,58.7739923 128.066219,57.5815739 C126.84261,56.8378119 125.427063,56.5283109 124.016315,56.2284069 L117.929463,54.9256238 C116.597889,54.6401152 115.227927,54.3546065 113.881958,54.5633397 C111.609885,54.9184261 110.009597,56.559501 108.603647,58.243762 C107.502399,59.5537428 104.810461,62.0129559 104.620921,63.7284069 C104.448177,65.309501 105.84453,67.9582534 106.082054,69.6257198 C106.393954,71.7850288 106.614683,71.0652591 107.833493,72.3896353 C108.603647,73.2101727 109.100288,74.1578695 109.114683,75.3071017 Z" id="Path" fill="#3F3D56"></path>
            <path d="M72.0393474,80.0359885 L48.1429942,80.0359885 C48.0767413,80.0359885 48.0230326,79.9822798 48.0230326,79.9160269 C48.0230326,79.8497739 48.0767413,79.7960653 48.1429942,79.7960653 L72.0393474,79.7960653 C72.1056004,79.7960653 72.159309,79.8497739 72.159309,79.9160269 C72.159309,79.9822798 72.1056004,80.0359885 72.0393474,80.0359885 Z" id="Path" fill="#F2F2F2"></path>
            <path d="M72.0393474,82.1952975 L48.1429942,82.1952975 C48.0767413,82.1952975 48.0230326,82.1415889 48.0230326,82.0753359 C48.0230326,82.0090829 48.0767413,81.9553743 48.1429942,81.9553743 L72.0393474,81.9553743 C72.1056004,81.9553743 72.159309,82.0090829 72.159309,82.0753359 C72.159309,82.1415889 72.1056004,82.1952975 72.0393474,82.1952975 Z" id="Path" fill="#F2F2F2"></path>
            <path d="M72.0393474,84.3546065 L48.1429942,84.3546065 C48.0767413,84.3546065 48.0230326,84.3008979 48.0230326,84.2346449 C48.0230326,84.1683919 48.0767413,84.1146833 48.1429942,84.1146833 L72.0393474,84.1146833 C72.1056004,84.1146833 72.159309,84.1683919 72.159309,84.2346449 C72.159309,84.3008979 72.1056004,84.3546065 72.0393474,84.3546065 Z" id="Path" fill="#F2F2F2"></path>
        </g>
        <g id="Elasticsearch_logo" transform="translate(24.000000, 31.000000)">
            <polygon id="Path" points="47 7 212 7 212 29 47 29"></polygon>
            <g id="Group" transform="translate(49.000000, 8.000000)" fill="#000000" fill-rule="nonzero">
                <path d="M6.79864865,18.9486486 C4.69054054,18.9486486 3.00405405,18.3324324 1.79189189,17.1513514 C0.57972973,15.9702703 0,14.2756757 0,12.1702703 C0,10.0135135 0.57972973,8.26756757 1.68648649,7.03513514 C2.79324324,5.8027027 4.32162162,5.18648649 6.27162162,5.18648649 C8.06351351,5.18648649 9.48648649,5.7 10.5405405,6.77837838 C11.5945946,7.85675676 12.1216216,9.29459459 12.1216216,11.1945946 L12.1216216,12.7351351 L3.00405405,12.7351351 C3.05675676,14.0189189 3.42567568,14.9945946 4.05810811,15.7135135 C4.69054054,16.4324324 5.69189189,16.7405405 6.90405405,16.7405405 C7.69459459,16.7405405 8.48513514,16.6891892 9.17027027,16.5351351 C9.85540541,16.3810811 10.5932432,16.1243243 11.4364865,15.8162162 L11.4364865,18.127027 C10.7513514,18.4351351 10.0135135,18.6918919 9.27567568,18.8459459 C8.53783784,19 7.69459459,18.9486486 6.79864865,18.9486486 L6.79864865,18.9486486 Z M6.21891892,7.34324324 C5.27027027,7.34324324 4.53243243,7.65135135 4.00540541,8.21621622 C3.47837838,8.78108108 3.10945946,9.6027027 3.00405405,10.7324324 L9.22297297,10.7324324 C9.22297297,9.65405405 8.95945946,8.78108108 8.43243243,8.21621622 C7.90540541,7.65135135 7.16756757,7.34324324 6.21891892,7.34324324 L6.21891892,7.34324324 Z" id="Shape"></path>
                <polygon id="Path" points="18.2878378 18.7432432 15.3891892 18.7432432 15.3891892 0 18.2878378 0"></polygon>
                <path d="M30.9891892,18.7432432 L30.4094595,16.8945946 L30.3040541,16.8945946 C29.6716216,17.7162162 28.9864865,18.2810811 28.3013514,18.5378378 C27.6162162,18.7945946 26.772973,19 25.7189189,19 C24.4013514,19 23.3472973,18.6405405 22.5567568,17.9216216 C21.7662162,17.2027027 21.45,16.227027 21.45,14.9432432 C21.45,13.5567568 21.977027,12.5297297 23.0310811,11.8621622 C24.0851351,11.1945946 25.6662162,10.7837838 27.827027,10.7324324 L30.1986486,10.6810811 L30.1986486,9.96216216 C30.1986486,9.08918919 29.9878378,8.47297297 29.5662162,8.06216216 C29.1445946,7.65135135 28.5121622,7.44594595 27.6689189,7.44594595 C26.9837838,7.44594595 26.2986486,7.54864865 25.6662162,7.75405405 C25.0337838,7.95945946 24.4013514,8.21621622 23.8216216,8.47297297 L22.872973,6.47027027 C23.6108108,6.11081081 24.4013514,5.8027027 25.2972973,5.5972973 C26.1932432,5.39189189 26.9837838,5.28918919 27.7743243,5.28918919 C29.5135135,5.28918919 30.8310811,5.64864865 31.727027,6.41891892 C32.622973,7.18918919 33.0445946,8.31891892 33.0445946,9.91081081 L33.0445946,18.7432432 L30.9891892,18.7432432 Z M26.6675676,16.7918919 C27.7216216,16.7918919 28.5648649,16.4837838 29.1972973,15.9189189 C29.8297297,15.3540541 30.1459459,14.5324324 30.1459459,13.5054054 L30.1459459,12.3756757 L28.4067568,12.427027 C27.0364865,12.4783784 26.0351351,12.6837838 25.4027027,13.0945946 C24.7702703,13.5054054 24.4540541,14.1216216 24.4540541,14.9432432 C24.4540541,15.5594595 24.6121622,16.0216216 24.9810811,16.3297297 C25.35,16.6378378 25.9297297,16.7918919 26.6675676,16.7918919 Z" id="Shape"></path>
                <path d="M46.272973,14.9432432 C46.272973,16.227027 45.7986486,17.2540541 44.7972973,17.9216216 C43.7959459,18.5891892 42.4256757,18.9486486 40.6337838,18.9486486 C38.7891892,18.9486486 37.3662162,18.6918919 36.2594595,18.127027 L36.2594595,15.6621622 C37.8405405,16.3810811 39.3689189,16.7405405 40.7391892,16.7405405 C42.5310811,16.7405405 43.427027,16.227027 43.427027,15.1486486 C43.427027,14.7891892 43.3216216,14.5324324 43.1108108,14.327027 C42.9,14.1216216 42.5837838,13.8648649 42.1094595,13.6081081 C41.6351351,13.3513514 41.0027027,13.0945946 40.2121622,12.7864865 C38.6310811,12.1702703 37.577027,11.6054054 36.9972973,10.9891892 C36.4175676,10.372973 36.1540541,9.6027027 36.1540541,8.67837838 C36.1540541,7.54864865 36.6283784,6.67567568 37.577027,6.00810811 C38.5256757,5.34054054 39.7905405,5.08378378 41.4243243,5.08378378 C43.0054054,5.08378378 44.5337838,5.39189189 45.9567568,6.05945946 L45.0081081,8.16486486 C43.5324324,7.54864865 42.3202703,7.29189189 41.2662162,7.29189189 C39.7378378,7.29189189 38.9472973,7.7027027 38.9472973,8.57567568 C38.9472973,8.98648649 39.1581081,9.34594595 39.527027,9.65405405 C39.8959459,9.96216216 40.7918919,10.3216216 42.1621622,10.8351351 C43.2689189,11.2459459 44.1121622,11.6567568 44.6391892,12.0162162 C45.1662162,12.3756757 45.5351351,12.7864865 45.7986486,13.2486486 C46.1675676,13.7621622 46.272973,14.2756757 46.272973,14.9432432 L46.272973,14.9432432 Z" id="Path"></path>
                <path d="M54.4945946,16.6891892 C55.1797297,16.6891892 55.9175676,16.5864865 56.6027027,16.3810811 L56.6027027,18.4864865 C56.2864865,18.6405405 55.8648649,18.7432432 55.3378378,18.8459459 C54.8108108,18.9486486 54.2837838,19 53.7567568,19 C51.0162162,19 49.6459459,17.5621622 49.6459459,14.7891892 L49.6459459,7.6 L47.8013514,7.6 L47.8013514,6.36756757 L49.8040541,5.34054054 L50.8054054,2.51621622 L52.5972973,2.51621622 L52.5972973,5.49459459 L56.4972973,5.49459459 L56.4972973,7.65135135 L52.5972973,7.65135135 L52.5972973,14.7891892 C52.5972973,15.4567568 52.7554054,15.9702703 53.1243243,16.2783784 C53.4932432,16.5864865 53.9675676,16.6891892 54.4945946,16.6891892 L54.4945946,16.6891892 Z" id="Path"></path>
                <path d="M59.1851351,1.9 C59.1851351,1.38648649 59.3432432,1.02702703 59.6067568,0.718918919 C59.8702703,0.410810811 60.2918919,0.308108108 60.8189189,0.308108108 C61.3459459,0.308108108 61.7148649,0.462162162 62.0310811,0.718918919 C62.3472973,0.975675676 62.4527027,1.38648649 62.4527027,1.9 C62.4527027,2.36216216 62.2945946,2.77297297 62.0310811,3.02972973 C61.7675676,3.28648649 61.3459459,3.44054054 60.8189189,3.44054054 C60.2918919,3.44054054 59.8702703,3.28648649 59.6067568,3.02972973 C59.3432432,2.77297297 59.1851351,2.36216216 59.1851351,1.9 Z M62.2945946,18.7432432 L59.3959459,18.7432432 L59.3959459,5.44324324 L62.2945946,5.44324324 L62.2945946,18.7432432 Z" id="Shape"></path>
                <path d="M71.9391892,18.9486486 C69.8837838,18.9486486 68.3027027,18.3837838 67.2486486,17.2027027 C66.1945946,16.0216216 65.6148649,14.327027 65.6148649,12.1189189 C65.6148649,9.85945946 66.1945946,8.16486486 67.3013514,6.93243243 C68.4081081,5.7 70.0418919,5.13513514 72.15,5.13513514 C73.572973,5.13513514 74.8905405,5.39189189 76.05,5.90540541 L75.1540541,8.16486486 C73.9418919,7.7027027 72.9405405,7.44594595 72.0972973,7.44594595 C69.7256757,7.44594595 68.5662162,8.98648649 68.5662162,12.0162162 C68.5662162,13.5054054 68.8824324,14.6351351 69.4621622,15.4054054 C70.0418919,16.1756757 70.9378378,16.5351351 72.0445946,16.5351351 C73.3621622,16.5351351 74.5743243,16.227027 75.7337838,15.6108108 L75.7337838,18.0756757 C75.2067568,18.3837838 74.6797297,18.5891892 74.0472973,18.6918919 C73.4148649,18.7945946 72.7824324,18.9486486 71.9391892,18.9486486 L71.9391892,18.9486486 Z" id="Path"></path>
                <path d="M88.1189189,14.9432432 C88.1189189,16.227027 87.6445946,17.2540541 86.6432432,17.9216216 C85.6418919,18.5891892 84.2716216,18.9486486 82.4797297,18.9486486 C80.6351351,18.9486486 79.2121622,18.6918919 78.1054054,18.127027 L78.1054054,15.6621622 C79.6864865,16.3810811 81.2148649,16.7405405 82.5851351,16.7405405 C84.377027,16.7405405 85.272973,16.227027 85.272973,15.1486486 C85.272973,14.7891892 85.1675676,14.5324324 84.9567568,14.327027 C84.7459459,14.1216216 84.4297297,13.8648649 83.9554054,13.6081081 C83.4810811,13.3513514 82.8486486,13.0945946 82.0581081,12.7864865 C80.477027,12.1702703 79.422973,11.6054054 78.8432432,10.9891892 C78.2635135,10.372973 78,9.6027027 78,8.67837838 C78,7.54864865 78.4743243,6.67567568 79.422973,6.00810811 C80.3716216,5.34054054 81.6364865,5.08378378 83.2702703,5.08378378 C84.8513514,5.08378378 86.3797297,5.39189189 87.8027027,6.05945946 L86.8540541,8.16486486 C85.3783784,7.54864865 84.1662162,7.29189189 83.1121622,7.29189189 C81.5837838,7.29189189 80.7932432,7.7027027 80.7932432,8.57567568 C80.7932432,8.98648649 81.0040541,9.34594595 81.372973,9.65405405 C81.7418919,9.96216216 82.6378378,10.3216216 84.0081081,10.8351351 C85.1148649,11.2459459 85.9581081,11.6567568 86.4851351,12.0162162 C87.0121622,12.3756757 87.3810811,12.7864865 87.6445946,13.2486486 C88.0135135,13.7621622 88.1189189,14.2756757 88.1189189,14.9432432 L88.1189189,14.9432432 Z" id="Path"></path>
                <path d="M97.2364865,18.9486486 C95.1283784,18.9486486 93.4418919,18.3324324 92.2297297,17.1513514 C91.0175676,15.9702703 90.4378378,14.2756757 90.4378378,12.1702703 C90.4378378,10.0135135 91.0175676,8.26756757 92.1243243,7.03513514 C93.2310811,5.8027027 94.7594595,5.18648649 96.7094595,5.18648649 C98.5013514,5.18648649 99.9243243,5.7 100.978378,6.77837838 C102.032432,7.85675676 102.559459,9.29459459 102.559459,11.1945946 L102.559459,12.7351351 L93.4418919,12.7351351 C93.4945946,14.0189189 93.8635135,14.9945946 94.4959459,15.7135135 C95.1283784,16.4324324 96.1297297,16.7405405 97.3418919,16.7405405 C98.1324324,16.7405405 98.922973,16.6891892 99.6081081,16.5351351 C100.293243,16.3810811 101.031081,16.1243243 101.874324,15.8162162 L101.874324,18.127027 C101.189189,18.4351351 100.451351,18.6918919 99.7135135,18.8459459 C98.9756757,19 98.1851351,18.9486486 97.2364865,18.9486486 L97.2364865,18.9486486 Z M96.7094595,7.34324324 C95.7608108,7.34324324 95.022973,7.65135135 94.4959459,8.21621622 C93.9689189,8.78108108 93.6,9.6027027 93.4945946,10.7324324 L99.7135135,10.7324324 C99.7135135,9.65405405 99.45,8.78108108 98.922973,8.21621622 C98.3959459,7.65135135 97.6054054,7.34324324 96.7094595,7.34324324 L96.7094595,7.34324324 Z" id="Shape"></path>
                <path d="M114.364865,18.7432432 L113.785135,16.8945946 L113.67973,16.8945946 C113.047297,17.7162162 112.362162,18.2810811 111.677027,18.5378378 C110.991892,18.7945946 110.148649,19 109.094595,19 C107.777027,19 106.722973,18.6405405 105.932432,17.9216216 C105.141892,17.2027027 104.825676,16.227027 104.825676,14.9432432 C104.825676,13.5567568 105.352703,12.5297297 106.406757,11.8621622 C107.460811,11.1945946 109.041892,10.7837838 111.202703,10.7324324 L113.574324,10.6810811 L113.574324,9.96216216 C113.574324,9.08918919 113.363514,8.47297297 112.941892,8.06216216 C112.52027,7.65135135 111.887838,7.44594595 111.044595,7.44594595 C110.359459,7.44594595 109.674324,7.54864865 109.041892,7.75405405 C108.409459,7.95945946 107.777027,8.21621622 107.197297,8.47297297 L106.248649,6.47027027 C106.986486,6.11081081 107.777027,5.8027027 108.672973,5.5972973 C109.568919,5.39189189 110.359459,5.28918919 111.15,5.28918919 C112.889189,5.28918919 114.206757,5.64864865 115.102703,6.41891892 C115.998649,7.18918919 116.42027,8.31891892 116.42027,9.91081081 L116.42027,18.7432432 L114.364865,18.7432432 Z M110.043243,16.7918919 C111.097297,16.7918919 111.940541,16.4837838 112.572973,15.9189189 C113.205405,15.3540541 113.521622,14.5324324 113.521622,13.5054054 L113.521622,12.3756757 L111.782432,12.427027 C110.412162,12.4783784 109.410811,12.6837838 108.778378,13.0945946 C108.145946,13.5054054 107.82973,14.1216216 107.82973,14.9432432 C107.82973,15.5594595 107.987838,16.0216216 108.356757,16.3297297 C108.725676,16.6378378 109.358108,16.7918919 110.043243,16.7918919 Z" id="Shape"></path>
                <path d="M127.435135,5.18648649 C128.014865,5.18648649 128.489189,5.23783784 128.858108,5.28918919 L128.594595,7.90810811 C128.172973,7.80540541 127.751351,7.75405405 127.32973,7.75405405 C126.17027,7.75405405 125.221622,8.11351351 124.483784,8.88378378 C123.745946,9.65405405 123.377027,10.5783784 123.377027,11.7594595 L123.377027,18.7432432 L120.478378,18.7432432 L120.478378,5.44324324 L122.744595,5.44324324 L123.113514,7.80540541 L123.271622,7.80540541 C123.745946,7.03513514 124.325676,6.36756757 125.063514,5.90540541 C125.801351,5.44324324 126.591892,5.18648649 127.435135,5.18648649 L127.435135,5.18648649 Z" id="Path"></path>
                <path d="M136.921622,18.9486486 C134.866216,18.9486486 133.285135,18.3837838 132.231081,17.2027027 C131.177027,16.0216216 130.597297,14.327027 130.597297,12.1189189 C130.597297,9.85945946 131.177027,8.16486486 132.283784,6.93243243 C133.390541,5.7 135.024324,5.13513514 137.132432,5.13513514 C138.555405,5.13513514 139.872973,5.39189189 141.032432,5.90540541 L140.136486,8.16486486 C138.924324,7.7027027 137.922973,7.44594595 137.07973,7.44594595 C134.708108,7.44594595 133.548649,8.98648649 133.548649,12.0162162 C133.548649,13.5054054 133.864865,14.6351351 134.444595,15.4054054 C135.024324,16.1756757 135.92027,16.5351351 137.027027,16.5351351 C138.344595,16.5351351 139.556757,16.227027 140.716216,15.6108108 L140.716216,18.0756757 C140.189189,18.3837838 139.662162,18.5891892 139.02973,18.6918919 C138.397297,18.7945946 137.764865,18.9486486 136.921622,18.9486486 L136.921622,18.9486486 Z" id="Path"></path>
                <path d="M155.947297,18.7432432 L153.048649,18.7432432 L153.048649,10.527027 C153.048649,9.5 152.837838,8.72972973 152.416216,8.21621622 C151.994595,7.7027027 151.309459,7.44594595 150.413514,7.44594595 C149.201351,7.44594595 148.305405,7.80540541 147.725676,8.52432432 C147.145946,9.24324324 146.882432,10.4243243 146.882432,12.0675676 L146.882432,18.7432432 L143.983784,18.7432432 L143.983784,0 L146.882432,0 L146.882432,4.77567568 C146.882432,5.54594595 146.82973,6.36756757 146.724324,7.24054054 L146.935135,7.24054054 C147.356757,6.62432432 147.883784,6.11081081 148.568919,5.75135135 C149.254054,5.39189189 150.097297,5.23783784 151.045946,5.23783784 C154.366216,5.23783784 156,6.88108108 156,10.1162162 L156,18.7432432 L155.947297,18.7432432 Z" id="Path"></path>
            </g>
            <path d="M28.8323171,15 L18,15 C18.0518293,15.25 18.1554878,15.5 18.2073171,15.7 C18.570122,16.9 18.777439,18.15 18.8810976,19.45 C18.9329268,19.95 18.9329268,20.5 18.9329268,21 C18.9329268,21.5 18.9329268,22.05 18.8810976,22.55 C18.777439,23.85 18.570122,25.1 18.2073171,26.3 C18.1554878,26.55 18.0518293,26.8 18,27 L28.8323171,27 C32.2530488,27 35,24.3 35,21 C35,17.7 32.2530488,15 28.8323171,15 Z" id="Path" fill="#00A9E5" fill-rule="nonzero"></path>
            <path d="M17.9498607,22.55 C18,22.05 18,21.5 18,21 C18,20.5 18,19.95 17.9498607,19.45 C17.8495822,18.15 17.6490251,16.9 17.2980501,15.7 C17.2479109,15.45 17.1476323,15.2 17.097493,15 L0.902506964,15 C0.300835655,16.9 0,18.9 0,21 C0,23.1 0.300835655,25.1 0.902506964,27 L17.097493,27 C17.1476323,26.75 17.2479109,26.5 17.2980501,26.3 C17.6490251,25.1 17.8495822,23.85 17.9498607,22.55 Z" id="Path" fill="#353535" fill-rule="nonzero"></path>
            <path d="M31.079566,30 L16.9746835,30 C16.5406872,30.9 16.0524412,31.75 15.5099458,32.55 C14.6962025,33.8 13.7197107,34.9 12.6347197,35.95 C12.2549729,36.3 11.875226,36.6 11.4954792,36.95 C10.7359855,37.6 9.86799277,38.15 9,38.7 C12.4177215,40.8 16.5406872,42 20.9349005,42 C28.4755877,42 35.0940325,38.45 39,33.1 C36.9927667,31.2 34.1717902,30 31.079566,30 Z" id="Path" fill="#00BFB3" fill-rule="nonzero"></path>
            <path d="M15.6177474,32.637931 C16.1296928,31.8103448 16.5904437,30.9310345 17,30 L2,30 C3.58703072,33.6724138 6.19795222,36.8275862 9.52559727,39 C10.3447099,38.4310345 11.112628,37.862069 11.8805461,37.1896552 C12.2389078,36.8793103 12.5972696,36.5172414 12.9556314,36.1551724 C13.9283276,35.1206897 14.8498294,33.9310345 15.6177474,32.637931 Z" id="Path" fill="#019B8F" fill-rule="nonzero"></path>
            <path d="M12.9556314,5.84482759 C12.5972696,5.48275862 12.2389078,5.17241379 11.8805461,4.81034483 C11.1638225,4.13793103 10.3447099,3.56896552 9.52559727,3 C6.24914676,5.17241379 3.63822526,8.32758621 2,12 L17,12 C16.5904437,11.0689655 16.1296928,10.1896552 15.6177474,9.36206897 C14.9010239,8.06896552 13.9795222,6.87931034 12.9556314,5.84482759 L12.9556314,5.84482759 Z" id="Path" fill="#F9B110" fill-rule="nonzero"></path>
            <path d="M20.9349005,0 C16.5406872,0 12.4177215,1.2 9,3.3 C9.86799277,3.85 10.681736,4.4 11.4954792,5.05 C11.875226,5.35 12.2549729,5.7 12.6347197,6.05 C13.7197107,7.1 14.6962025,8.2 15.5099458,9.45 C16.0524412,10.25 16.5406872,11.1 16.9746835,12 L31.079566,12 C34.1717902,12 36.9927667,10.8 39,8.9 C35.0940325,3.55 28.4755877,0 20.9349005,0 L20.9349005,0 Z" id="Path" fill="#FED10A" fill-rule="nonzero"></path>
        </g>
    </g>
</svg>